<svg width="976" height="976" viewBox="0 0 976 976" fill="none" xmlns="http://www.w3.org/2000/svg">
<g filter="url(#filter0_d_0_1)">
<mask id="path-1-inside-1_0_1" fill="white">
<path d="M972 484C972 580.023 943.438 673.877 889.946 753.621C836.455 833.365 760.452 895.396 671.606 931.823C582.76 968.249 485.086 977.425 391.011 958.182C296.935 938.94 210.709 892.15 143.302 823.763C75.8942 755.376 30.352 668.485 12.4684 574.141C-5.41523 479.798 5.16808 382.267 42.872 293.956C80.576 205.644 143.696 130.544 224.204 78.2077C304.711 25.8717 398.967 -1.33442 494.98 0.05033L494.264 49.6938C408.1 48.4511 323.513 72.8664 251.264 119.834C179.015 166.801 122.369 234.198 88.5332 313.45C54.6969 392.703 45.1992 480.229 61.2484 564.895C77.2975 649.56 118.168 727.539 178.661 788.91C239.154 850.282 316.534 892.273 400.96 909.541C485.385 926.809 573.039 918.575 652.771 885.885C732.504 853.195 800.71 797.527 848.715 725.963C896.719 654.399 922.352 570.173 922.352 484H972Z"/>
</mask>
<path d="M972 484C972 580.023 943.438 673.877 889.946 753.621C836.455 833.365 760.452 895.396 671.606 931.823C582.76 968.249 485.086 977.425 391.011 958.182C296.935 938.94 210.709 892.15 143.302 823.763C75.8942 755.376 30.352 668.485 12.4684 574.141C-5.41523 479.798 5.16808 382.267 42.872 293.956C80.576 205.644 143.696 130.544 224.204 78.2077C304.711 25.8717 398.967 -1.33442 494.98 0.05033L494.264 49.6938C408.1 48.4511 323.513 72.8664 251.264 119.834C179.015 166.801 122.369 234.198 88.5332 313.45C54.6969 392.703 45.1992 480.229 61.2484 564.895C77.2975 649.56 118.168 727.539 178.661 788.91C239.154 850.282 316.534 892.273 400.96 909.541C485.385 926.809 573.039 918.575 652.771 885.885C732.504 853.195 800.71 797.527 848.715 725.963C896.719 654.399 922.352 570.173 922.352 484H972Z" stroke="#4C5366" stroke-width="140" shape-rendering="crispEdges" mask="url(#path-1-inside-1_0_1)"/>
</g>
<g filter="url(#filter1_d_0_1)">
<mask id="path-2-inside-2_0_1" fill="white">
<path d="M923.883 339.866C936.942 335.548 951.095 342.62 954.736 355.884C971.484 416.898 976.128 480.686 968.312 543.634C959.473 614.831 934.915 683.173 896.418 743.714C857.92 804.254 806.444 855.479 745.716 893.681C684.989 931.883 616.527 956.106 545.288 964.598C474.048 973.09 401.811 965.637 333.805 942.781C265.799 919.924 203.725 882.235 152.075 832.44C100.425 782.645 60.4913 721.99 35.1636 654.865C12.7706 595.518 2.29018 532.426 4.22701 469.185C4.64806 455.437 16.7422 445.236 30.4505 446.363V446.363C44.1588 447.491 54.2825 459.521 53.9426 473.271C52.5614 529.145 61.9802 584.843 81.7663 637.281C104.487 697.498 140.311 751.91 186.646 796.581C232.98 841.251 288.666 875.062 349.674 895.566C410.681 916.071 475.484 922.756 539.392 915.138C603.3 907.52 664.716 885.79 719.194 851.519C773.672 817.249 819.85 771.296 854.386 716.986C888.922 662.676 910.952 601.367 918.882 537.497C925.788 481.877 921.85 425.526 907.374 371.542C903.812 358.257 910.824 344.184 923.883 339.866V339.866Z"/>
</mask>
<path d="M923.883 339.866C936.942 335.548 951.095 342.62 954.736 355.884C971.484 416.898 976.128 480.686 968.312 543.634C959.473 614.831 934.915 683.173 896.418 743.714C857.92 804.254 806.444 855.479 745.716 893.681C684.989 931.883 616.527 956.106 545.288 964.598C474.048 973.09 401.811 965.637 333.805 942.781C265.799 919.924 203.725 882.235 152.075 832.44C100.425 782.645 60.4913 721.99 35.1636 654.865C12.7706 595.518 2.29018 532.426 4.22701 469.185C4.64806 455.437 16.7422 445.236 30.4505 446.363V446.363C44.1588 447.491 54.2825 459.521 53.9426 473.271C52.5614 529.145 61.9802 584.843 81.7663 637.281C104.487 697.498 140.311 751.91 186.646 796.581C232.98 841.251 288.666 875.062 349.674 895.566C410.681 916.071 475.484 922.756 539.392 915.138C603.3 907.52 664.716 885.79 719.194 851.519C773.672 817.249 819.85 771.296 854.386 716.986C888.922 662.676 910.952 601.367 918.882 537.497C925.788 481.877 921.85 425.526 907.374 371.542C903.812 358.257 910.824 344.184 923.883 339.866V339.866Z" stroke="#6D7488" stroke-width="140" shape-rendering="crispEdges" mask="url(#path-2-inside-2_0_1)"/>
</g>
<g filter="url(#filter2_d_0_1)">
<mask id="path-3-inside-3_0_1" fill="white">
<path d="M471.387 25.2763C470.888 11.4917 481.663 -0.155074 495.455 0.0573147C572.838 1.24896 648.938 20.986 717.306 57.7669C785.675 94.5478 844.082 147.174 887.72 211.089C895.497 222.481 891.717 237.89 879.939 245.07V245.07C868.161 252.25 852.852 248.475 845.007 237.13C806.034 180.769 754.194 134.333 693.641 101.756C633.088 69.1798 565.771 51.5119 497.264 50.0499C483.473 49.7556 471.886 39.0609 471.387 25.2763V25.2763Z"/>
</mask>
<path d="M471.387 25.2763C470.888 11.4917 481.663 -0.155074 495.455 0.0573147C572.838 1.24896 648.938 20.986 717.306 57.7669C785.675 94.5478 844.082 147.174 887.72 211.089C895.497 222.481 891.717 237.89 879.939 245.07V245.07C868.161 252.25 852.852 248.475 845.007 237.13C806.034 180.769 754.194 134.333 693.641 101.756C633.088 69.1798 565.771 51.5119 497.264 50.0499C483.473 49.7556 471.886 39.0609 471.387 25.2763V25.2763Z" stroke="#9EB28D" stroke-width="140" stroke-linejoin="round" shape-rendering="crispEdges" mask="url(#path-3-inside-3_0_1)"/>
</g>
<g filter="url(#filter3_d_0_1)">
<circle cx="907" cy="292" r="25" fill="#9EB28D"/>
</g>
<g filter="url(#filter4_d_0_1)">
<mask id="path-5-outside-4_0_1" maskUnits="userSpaceOnUse" x="231" y="240" width="497" height="474" fill="black">
<rect fill="white" x="231" y="240" width="497" height="474"/>
<path d="M339.5 244L396.5 261.5C386.834 289.5 375.167 317.833 361.5 346.5C348.167 374.833 333.5 401.833 317.5 427.5C301.834 452.833 285.5 475.167 268.5 494.5C266.5 489.5 263.5 483.167 259.5 475.5C255.834 467.5 251.834 459.5 247.5 451.5C243.167 443.5 239.167 437 235.5 432C249.834 416.667 263.334 399 276 379C289 358.667 300.834 337 311.5 314C322.5 291 331.834 267.667 339.5 244ZM299 382.5L356 325.5V326V711H299V382.5ZM512 244.5H570.5V708H512V244.5ZM385 331.5H709V388.5H385V331.5ZM446 574H638V627.5H446V574ZM592 363.5C600.667 391.5 611.834 419.833 625.5 448.5C639.167 476.833 654.334 503.333 671 528C687.667 552.333 705 573 723 590C716 595 708 602 699 611C690.334 620 683.334 628.5 678 636.5C660 616.5 642.834 592.5 626.5 564.5C610.167 536.5 595.5 506.333 582.5 474C569.5 441.333 558.334 408.5 549 375.5L592 363.5ZM493.5 358.5L537 370.5C527.667 405.167 516.167 439.167 502.5 472.5C488.834 505.833 473.5 536.667 456.5 565C439.5 593.333 421.167 617.667 401.5 638C398.167 633.333 394 628.167 389 622.5C384 616.5 378.667 610.833 373 605.5C367.667 600.167 362.834 595.833 358.5 592.5C377.834 575.5 396 554.5 413 529.5C430.334 504.167 445.834 476.833 459.5 447.5C473.5 417.833 484.834 388.167 493.5 358.5Z"/>
</mask>
<path d="M339.5 244L396.5 261.5C386.834 289.5 375.167 317.833 361.5 346.5C348.167 374.833 333.5 401.833 317.5 427.5C301.834 452.833 285.5 475.167 268.5 494.5C266.5 489.5 263.5 483.167 259.5 475.5C255.834 467.5 251.834 459.5 247.5 451.5C243.167 443.5 239.167 437 235.5 432C249.834 416.667 263.334 399 276 379C289 358.667 300.834 337 311.5 314C322.5 291 331.834 267.667 339.5 244ZM299 382.5L356 325.5V326V711H299V382.5ZM512 244.5H570.5V708H512V244.5ZM385 331.5H709V388.5H385V331.5ZM446 574H638V627.5H446V574ZM592 363.5C600.667 391.5 611.834 419.833 625.5 448.5C639.167 476.833 654.334 503.333 671 528C687.667 552.333 705 573 723 590C716 595 708 602 699 611C690.334 620 683.334 628.5 678 636.5C660 616.5 642.834 592.5 626.5 564.5C610.167 536.5 595.5 506.333 582.5 474C569.5 441.333 558.334 408.5 549 375.5L592 363.5ZM493.5 358.5L537 370.5C527.667 405.167 516.167 439.167 502.5 472.5C488.834 505.833 473.5 536.667 456.5 565C439.5 593.333 421.167 617.667 401.5 638C398.167 633.333 394 628.167 389 622.5C384 616.5 378.667 610.833 373 605.5C367.667 600.167 362.834 595.833 358.5 592.5C377.834 575.5 396 554.5 413 529.5C430.334 504.167 445.834 476.833 459.5 447.5C473.5 417.833 484.834 388.167 493.5 358.5Z" fill="white"/>
<path d="M339.5 244L340.381 241.132L337.557 240.265L336.646 243.075L339.5 244ZM396.5 261.5L399.336 262.479L400.349 259.544L397.381 258.632L396.5 261.5ZM361.5 346.5L358.792 345.209L358.789 345.216L358.786 345.223L361.5 346.5ZM317.5 427.5L314.954 425.913L314.949 425.922L317.5 427.5ZM268.5 494.5L265.715 495.614L267.528 500.148L270.753 496.481L268.5 494.5ZM259.5 475.5L256.773 476.75L256.805 476.82L256.84 476.888L259.5 475.5ZM247.5 451.5L250.138 450.071V450.071L247.5 451.5ZM235.5 432L233.309 429.951L231.61 431.768L233.081 433.774L235.5 432ZM276 379L273.473 377.384L273.466 377.395L276 379ZM311.5 314L308.794 312.706L308.786 312.722L308.779 312.738L311.5 314ZM299 382.5L296.879 380.379L296 381.257V382.5H299ZM356 325.5H359V318.257L353.879 323.379L356 325.5ZM356 711V714H359V711H356ZM299 711H296V714H299V711ZM512 244.5V241.5H509V244.5H512ZM570.5 244.5H573.5V241.5H570.5V244.5ZM570.5 708V711H573.5V708H570.5ZM512 708H509V711H512V708ZM385 331.5V328.5H382V331.5H385ZM709 331.5H712V328.5H709V331.5ZM709 388.5V391.5H712V388.5H709ZM385 388.5H382V391.5H385V388.5ZM446 574V571H443V574H446ZM638 574H641V571H638V574ZM638 627.5V630.5H641V627.5H638ZM446 627.5H443V630.5H446V627.5ZM592 363.5L594.866 362.613L594.004 359.826L591.194 360.61L592 363.5ZM625.5 448.5L622.792 449.791L622.798 449.803L625.5 448.5ZM671 528L668.515 529.68L668.52 529.687L668.525 529.695L671 528ZM723 590L724.744 592.441L727.711 590.322L725.06 587.819L723 590ZM699 611L696.879 608.879L696.859 608.899L696.839 608.919L699 611ZM678 636.5L675.77 638.507L678.354 641.378L680.496 638.164L678 636.5ZM626.5 564.5L623.909 566.012V566.012L626.5 564.5ZM582.5 474L579.713 475.109L579.717 475.119L582.5 474ZM549 375.5L548.194 372.61L545.294 373.42L546.114 376.316L549 375.5ZM493.5 358.5L494.298 355.608L491.449 354.822L490.621 357.659L493.5 358.5ZM537 370.5L539.897 371.28L540.672 368.401L537.798 367.608L537 370.5ZM502.5 472.5L505.276 473.638V473.638L502.5 472.5ZM456.5 565L453.928 563.457V563.457L456.5 565ZM401.5 638L399.059 639.744L401.153 642.675L403.657 640.086L401.5 638ZM389 622.5L386.696 624.421L386.723 624.453L386.751 624.485L389 622.5ZM373 605.5L370.879 607.621L370.911 607.653L370.944 607.685L373 605.5ZM358.5 592.5L356.519 590.247L353.781 592.655L356.671 594.878L358.5 592.5ZM413 529.5L410.524 527.806L410.519 527.813L413 529.5ZM459.5 447.5L456.787 446.22L456.784 446.226L456.781 446.233L459.5 447.5ZM339.5 244L338.62 246.868L395.62 264.368L396.5 261.5L397.381 258.632L340.381 241.132L339.5 244ZM396.5 261.5L393.664 260.521C384.037 288.407 372.414 316.637 358.792 345.209L361.5 346.5L364.208 347.791C377.92 319.03 389.63 290.593 399.336 262.479L396.5 261.5ZM361.5 346.5L358.786 345.223C345.501 373.453 330.89 400.35 314.954 425.913L317.5 427.5L320.046 429.087C336.11 403.317 350.833 376.213 364.215 347.777L361.5 346.5ZM317.5 427.5L314.949 425.922C299.357 451.135 283.121 473.329 266.247 492.519L268.5 494.5L270.753 496.481C287.879 477.004 304.31 454.532 320.052 429.078L317.5 427.5ZM268.5 494.5L271.286 493.386C269.233 488.254 266.182 481.822 262.16 474.112L259.5 475.5L256.84 476.888C260.818 484.512 263.767 490.746 265.715 495.614L268.5 494.5ZM259.5 475.5L262.227 474.25C258.532 466.187 254.502 458.128 250.138 450.071L247.5 451.5L244.862 452.929C249.165 460.872 253.135 468.813 256.773 476.75L259.5 475.5ZM247.5 451.5L250.138 450.071C245.767 442.001 241.695 435.374 237.919 430.226L235.5 432L233.081 433.774C236.639 438.626 240.567 444.999 244.862 452.929L247.5 451.5ZM235.5 432L237.692 434.049C252.168 418.562 265.78 400.744 278.535 380.605L276 379L273.466 377.395C260.887 397.256 247.499 414.771 233.309 429.951L235.5 432ZM276 379L278.528 380.616C291.604 360.164 303.501 338.378 314.222 315.262L311.5 314L308.779 312.738C298.166 335.622 286.397 357.17 273.473 377.384L276 379ZM311.5 314L314.207 315.294C325.263 292.177 334.646 268.721 342.354 244.925L339.5 244L336.646 243.075C329.022 266.613 319.738 289.823 308.794 312.706L311.5 314ZM299 382.5L301.122 384.621L358.122 327.621L356 325.5L353.879 323.379L296.879 380.379L299 382.5ZM356 325.5H353V326H356H359V325.5H356ZM356 326H353V711H356H359V326H356ZM356 711V708H299V711V714H356V711ZM299 711H302V382.5H299H296V711H299ZM512 244.5V247.5H570.5V244.5V241.5H512V244.5ZM570.5 244.5H567.5V708H570.5H573.5V244.5H570.5ZM570.5 708V705H512V708V711H570.5V708ZM512 708H515V244.5H512H509V708H512ZM385 331.5V334.5H709V331.5V328.5H385V331.5ZM709 331.5H706V388.5H709H712V331.5H709ZM709 388.5V385.5H385V388.5V391.5H709V388.5ZM385 388.5H388V331.5H385H382V388.5H385ZM446 574V577H638V574V571H446V574ZM638 574H635V627.5H638H641V574H638ZM638 627.5V624.5H446V627.5V630.5H638V627.5ZM446 627.5H449V574H446H443V627.5H446ZM592 363.5L589.134 364.387C597.847 392.536 609.068 421.004 622.792 449.791L625.5 448.5L628.208 447.209C614.599 418.662 603.487 390.464 594.866 362.613L592 363.5ZM625.5 448.5L622.798 449.803C636.524 478.26 651.762 504.886 668.515 529.68L671 528L673.486 526.32C656.905 501.78 641.81 475.407 628.202 447.197L625.5 448.5ZM671 528L668.525 529.695C685.29 554.172 702.759 575.01 720.94 592.181L723 590L725.06 587.819C707.242 570.99 690.043 550.494 673.475 526.305L671 528ZM723 590L721.257 587.559C714.075 592.689 705.946 599.812 696.879 608.879L699 611L701.122 613.121C710.055 604.188 717.926 597.311 724.744 592.441L723 590ZM699 611L696.839 608.919C688.083 618.012 680.961 626.651 675.504 634.836L678 636.5L680.496 638.164C685.706 630.349 692.584 621.988 701.161 613.081L699 611ZM678 636.5L680.23 634.493C662.392 614.673 645.342 590.846 629.092 562.988L626.5 564.5L623.909 566.012C640.325 594.154 657.609 618.327 675.77 638.507L678 636.5ZM626.5 564.5L629.092 562.988C612.837 535.123 598.233 505.089 585.284 472.881L582.5 474L579.717 475.119C592.767 507.578 607.497 537.877 623.909 566.012L626.5 564.5ZM582.5 474L585.288 472.891C572.325 440.318 561.192 407.582 551.887 374.684L549 375.5L546.114 376.316C555.476 409.418 566.676 442.349 579.713 475.109L582.5 474ZM549 375.5L549.807 378.39L592.807 366.39L592 363.5L591.194 360.61L548.194 372.61L549 375.5ZM493.5 358.5L492.702 361.392L536.202 373.392L537 370.5L537.798 367.608L494.298 355.608L493.5 358.5ZM537 370.5L534.103 369.72C524.803 404.264 513.343 438.145 499.725 471.362L502.5 472.5L505.276 473.638C518.99 440.188 530.531 406.069 539.897 371.28L537 370.5ZM502.5 472.5L499.725 471.362C486.11 504.568 470.843 535.264 453.928 563.457L456.5 565L459.073 566.543C476.157 538.069 491.557 507.099 505.276 473.638L502.5 472.5ZM456.5 565L453.928 563.457C437.026 591.626 418.828 615.77 399.344 635.914L401.5 638L403.657 640.086C423.506 619.563 441.974 595.041 459.073 566.543L456.5 565ZM401.5 638L403.941 636.256C400.533 631.485 396.298 626.236 391.25 620.515L389 622.5L386.751 624.485C391.703 630.097 395.801 635.182 399.059 639.744L401.5 638ZM389 622.5L391.305 620.579C386.228 614.487 380.811 608.732 375.056 603.315L373 605.5L370.944 607.685C376.522 612.935 381.773 618.513 386.696 624.421L389 622.5ZM373 605.5L375.122 603.379C369.728 597.985 364.796 593.558 360.329 590.122L358.5 592.5L356.671 594.878C360.871 598.109 365.606 602.348 370.879 607.621L373 605.5ZM358.5 592.5L360.481 594.753C380.034 577.56 398.363 556.361 415.481 531.187L413 529.5L410.519 527.813C393.638 552.639 375.633 573.44 356.519 590.247L358.5 592.5ZM413 529.5L415.476 531.194C432.907 505.718 448.487 478.241 462.22 448.767L459.5 447.5L456.781 446.233C443.18 475.426 427.76 502.615 410.524 527.806L413 529.5ZM459.5 447.5L462.213 448.78C476.276 418.98 487.667 389.167 496.38 359.341L493.5 358.5L490.621 357.659C482.001 387.166 470.724 416.686 456.787 446.22L459.5 447.5Z" fill="black" mask="url(#path-5-outside-4_0_1)"/>
</g>
<defs>
<filter id="filter0_d_0_1" x="0" y="0" width="976" height="976" filterUnits="userSpaceOnUse" color-interpolation-filters="sRGB">
<feFlood flood-opacity="0" result="BackgroundImageFix"/>
<feColorMatrix in="SourceAlpha" type="matrix" values="0 0 0 0 0 0 0 0 0 0 0 0 0 0 0 0 0 0 127 0" result="hardAlpha"/>
<feOffset dy="4"/>
<feGaussianBlur stdDeviation="2"/>
<feComposite in2="hardAlpha" operator="out"/>
<feColorMatrix type="matrix" values="0 0 0 0 0 0 0 0 0 0 0 0 0 0 0 0 0 0 0.25 0"/>
<feBlend mode="normal" in2="BackgroundImageFix" result="effect1_dropShadow_0_1"/>
<feBlend mode="normal" in="SourceGraphic" in2="effect1_dropShadow_0_1" result="shape"/>
</filter>
<filter id="filter1_d_0_1" x="0.00018692" y="338.6" width="976" height="637.4" filterUnits="userSpaceOnUse" color-interpolation-filters="sRGB">
<feFlood flood-opacity="0" result="BackgroundImageFix"/>
<feColorMatrix in="SourceAlpha" type="matrix" values="0 0 0 0 0 0 0 0 0 0 0 0 0 0 0 0 0 0 127 0" result="hardAlpha"/>
<feOffset dy="4"/>
<feGaussianBlur stdDeviation="2"/>
<feComposite in2="hardAlpha" operator="out"/>
<feColorMatrix type="matrix" values="0 0 0 0 0 0 0 0 0 0 0 0 0 0 0 0 0 0 0.25 0"/>
<feBlend mode="normal" in2="BackgroundImageFix" result="effect1_dropShadow_0_1"/>
<feBlend mode="normal" in="SourceGraphic" in2="effect1_dropShadow_0_1" result="shape"/>
</filter>
<filter id="filter2_d_0_1" x="467.37" y="0.0544434" width="428.422" height="256.674" filterUnits="userSpaceOnUse" color-interpolation-filters="sRGB">
<feFlood flood-opacity="0" result="BackgroundImageFix"/>
<feColorMatrix in="SourceAlpha" type="matrix" values="0 0 0 0 0 0 0 0 0 0 0 0 0 0 0 0 0 0 127 0" result="hardAlpha"/>
<feOffset dy="4"/>
<feGaussianBlur stdDeviation="2"/>
<feComposite in2="hardAlpha" operator="out"/>
<feColorMatrix type="matrix" values="0 0 0 0 0 0 0 0 0 0 0 0 0 0 0 0 0 0 0.25 0"/>
<feBlend mode="normal" in2="BackgroundImageFix" result="effect1_dropShadow_0_1"/>
<feBlend mode="normal" in="SourceGraphic" in2="effect1_dropShadow_0_1" result="shape"/>
</filter>
<filter id="filter3_d_0_1" x="878" y="267" width="58" height="58" filterUnits="userSpaceOnUse" color-interpolation-filters="sRGB">
<feFlood flood-opacity="0" result="BackgroundImageFix"/>
<feColorMatrix in="SourceAlpha" type="matrix" values="0 0 0 0 0 0 0 0 0 0 0 0 0 0 0 0 0 0 127 0" result="hardAlpha"/>
<feOffset dy="4"/>
<feGaussianBlur stdDeviation="2"/>
<feComposite in2="hardAlpha" operator="out"/>
<feColorMatrix type="matrix" values="0 0 0 0 0 0 0 0 0 0 0 0 0 0 0 0 0 0 0.25 0"/>
<feBlend mode="normal" in2="BackgroundImageFix" result="effect1_dropShadow_0_1"/>
<feBlend mode="normal" in="SourceGraphic" in2="effect1_dropShadow_0_1" result="shape"/>
</filter>
<filter id="filter4_d_0_1" x="227.61" y="240.265" width="504.1" height="481.735" filterUnits="userSpaceOnUse" color-interpolation-filters="sRGB">
<feFlood flood-opacity="0" result="BackgroundImageFix"/>
<feColorMatrix in="SourceAlpha" type="matrix" values="0 0 0 0 0 0 0 0 0 0 0 0 0 0 0 0 0 0 127 0" result="hardAlpha"/>
<feOffset dy="4"/>
<feGaussianBlur stdDeviation="2"/>
<feComposite in2="hardAlpha" operator="out"/>
<feColorMatrix type="matrix" values="0 0 0 0 0 0 0 0 0 0 0 0 0 0 0 0 0 0 0.25 0"/>
<feBlend mode="normal" in2="BackgroundImageFix" result="effect1_dropShadow_0_1"/>
<feBlend mode="normal" in="SourceGraphic" in2="effect1_dropShadow_0_1" result="shape"/>
</filter>
</defs>
</svg>
